<?xml version="1.0" encoding="UTF-8" standalone="no"?>
<!-- Created with Inkscape (http://www.inkscape.org/) -->

<svg
   xmlns:dc="http://purl.org/dc/elements/1.1/"
   xmlns:cc="http://creativecommons.org/ns#"
   xmlns:rdf="http://www.w3.org/1999/02/22-rdf-syntax-ns#"
   xmlns:svg="http://www.w3.org/2000/svg"
   xmlns="http://www.w3.org/2000/svg"
   xmlns:sodipodi="http://sodipodi.sourceforge.net/DTD/sodipodi-0.dtd"
   xmlns:inkscape="http://www.inkscape.org/namespaces/inkscape"
   width="130"
   height="130"
   viewBox="0 0 34.395838 34.395827"
   version="1.1"
   id="svg35"
   inkscape:version="0.92.2 (5c3e80d, 2017-08-06)"
   sodipodi:docname="logo.svg"
   inkscape:export-filename="D:\LocalRepos\Orbbit\docs\logo\logo_500_500.png"
   inkscape:export-xdpi="369.23077"
   inkscape:export-ydpi="369.23077">
  <defs
     id="defs29" />
  <sodipodi:namedview
     id="base"
     pagecolor="#ffffff"
     bordercolor="#666666"
     borderopacity="1.0"
     inkscape:pageopacity="0.0"
     inkscape:pageshadow="2"
     inkscape:zoom="5.6568542"
     inkscape:cx="28.508027"
     inkscape:cy="72.023563"
     inkscape:document-units="mm"
     inkscape:current-layer="layer5"
     showgrid="false"
     inkscape:window-width="1920"
     inkscape:window-height="1017"
     inkscape:window-x="-8"
     inkscape:window-y="-8"
     inkscape:window-maximized="1"
     inkscape:snap-object-midpoints="false"
     inkscape:snap-others="false"
     inkscape:snap-nodes="false"
     fit-margin-top="0"
     fit-margin-left="0"
     fit-margin-right="0"
     fit-margin-bottom="0"
     units="px" />
  <metadata
     id="metadata32">
    <rdf:RDF>
      <cc:Work
         rdf:about="">
        <dc:format>image/svg+xml</dc:format>
        <dc:type
           rdf:resource="http://purl.org/dc/dcmitype/StillImage" />
        <dc:title />
      </cc:Work>
    </rdf:RDF>
  </metadata>
  <g
     inkscape:groupmode="layer"
     id="layer5"
     inkscape:label="Layer 5"
     style="display:inline">
    <path
       style="display:inline;fill:none;fill-opacity:1;stroke:#ffffff;stroke-width:9.44881902;stroke-miterlimit:4;stroke-dasharray:none;stroke-opacity:1"
       d="M 64.525391 11.607422 A 51.309692 51.309692 0 0 0 13.214844 62.916016 A 51.309692 51.309692 0 0 0 14.611328 74.529297 A 23.951141 62.933561 60.376946 0 0 11.267578 95.5625 A 23.951141 62.933561 60.376946 0 0 29.380859 100.21484 A 51.309692 51.309692 0 0 0 33.953125 104.04688 L 31.900391 104.04688 L 27.482422 114.81836 L 31.900391 114.81836 L 64.890625 114.81836 L 97.880859 114.81836 L 102.29883 114.81836 L 97.880859 104.04688 L 95.109375 104.04688 A 51.309692 51.309692 0 0 0 115.83398 62.916016 A 51.309692 51.309692 0 0 0 114.62305 52.123047 A 23.951141 62.933561 60.376946 0 0 118.51367 30.300781 A 23.951141 62.933561 60.376946 0 0 99.763672 25.708984 A 51.309692 51.309692 0 0 0 64.525391 11.607422 z "
       transform="scale(0.26458333)"
       id="circle830" />
  </g>
  <g
     inkscape:label="Layer 1"
     inkscape:groupmode="layer"
     id="layer1"
     transform="translate(-27.707094,-128.73034)"
     style="display:inline" />
  <g
     inkscape:groupmode="layer"
     id="layer3"
     inkscape:label="Layer 3"
     transform="translate(-27.707094,-128.73034)"
     style="display:inline">
    <g
       id="g845"
       transform="matrix(1.0997169,0,0,0.95268003,-4.6883585,0.89719417)">
      <g
         transform="matrix(0.99262234,0,0,1,1.8413931,2.245064)"
         id="g831">
        <rect
           style="fill:#000000;fill-opacity:1;stroke:none;stroke-width:0.49323586;stroke-miterlimit:4;stroke-dasharray:none;stroke-opacity:1"
           id="rect920"
           width="7.9962802"
           height="2.9913843"
           x="43.550076"
           y="160.83408" />
        <path
           style="fill:#000000;fill-opacity:1;stroke:none;stroke-width:0.27522218;stroke-linecap:butt;stroke-linejoin:miter;stroke-miterlimit:4;stroke-dasharray:none;stroke-opacity:1"
           d="m 51.546356,163.82545 h 1.070612 l -1.070612,-2.99134 z"
           id="path929"
           inkscape:connector-curvature="0"
           sodipodi:nodetypes="cccc" />
      </g>
      <g
         id="g837"
         transform="matrix(-0.99262234,0,0,1.0000003,88.298949,2.2450157)">
        <rect
           y="160.83408"
           x="43.550076"
           height="2.9913843"
           width="7.9962802"
           id="rect833"
           style="fill:#000000;fill-opacity:1;stroke:none;stroke-width:0.49323586;stroke-miterlimit:4;stroke-dasharray:none;stroke-opacity:1" />
        <path
           sodipodi:nodetypes="cccc"
           inkscape:connector-curvature="0"
           id="path835"
           d="m 51.546356,163.82545 h 1.070612 l -1.070612,-2.99134 z"
           style="fill:#000000;fill-opacity:1;stroke:none;stroke-width:0.27522218;stroke-linecap:butt;stroke-linejoin:miter;stroke-miterlimit:4;stroke-dasharray:none;stroke-opacity:1" />
      </g>
    </g>
  </g>
  <g
     inkscape:groupmode="layer"
     id="layer2"
     inkscape:label="Layer 2"
     transform="translate(-27.707094,-128.73034)"
     style="display:inline">
    <path
       id="circle891"
       style="fill:#00a500;fill-opacity:1;stroke:none;stroke-width:0;stroke-miterlimit:4;stroke-dasharray:none;stroke-opacity:1"
       r="14.249999"
       cy="147.91824"
       cx="43.656261"
       d=""
       inkscape:connector-curvature="0" />
    <g
       id="g927"
       transform="matrix(0.95268003,0,0,0.95268003,3.1890216,4.4584165)">
      <ellipse
         transform="matrix(0.85426354,-0.51984016,0.65860015,0.7524931,0,0)"
         ry="6.7692909"
         rx="17.433088"
         cy="151.35262"
         cx="-65.463631"
         id="path4549"
         style="fill:none;fill-opacity:0;stroke:#000000;stroke-width:1.17674375;stroke-miterlimit:4;stroke-dasharray:none;stroke-opacity:1" />
      <circle
         r="14.249999"
         cy="147.91814"
         cx="43.656101"
         id="path4555-5"
         style="fill:#000000;fill-opacity:1;stroke:none;stroke-width:0;stroke-miterlimit:4;stroke-dasharray:none;stroke-opacity:1" />
      <path
         transform="scale(0.26458333)"
         id="path912"
         d="m 216.86328,544.73047 a 22.276265,66.182149 60.289454 0 1 -39.98437,32.8125 22.276265,66.182149 60.289454 0 1 -50.43555,19.03515 53.858264,53.858264 0 0 0 3.49219,3.29883 26.620033,70.411857 60.79667 0 0 53.08007,-20.49414 26.620033,70.411857 60.79667 0 0 35.13086,-28.82812 53.858264,53.858264 0 0 0 -1.2832,-5.82422 z"
         style="fill:#ffffff;fill-opacity:1;stroke:none;stroke-width:5.3471508;stroke-miterlimit:4;stroke-dasharray:none;stroke-opacity:1"
         inkscape:connector-curvature="0" />
      <rect
         ry="0"
         y="149.53937"
         x="47.874435"
         height="3.96875"
         width="3.96875"
         id="rect918"
         style="fill:#ffffff;fill-opacity:1;stroke:none;stroke-width:1.36500001;stroke-miterlimit:4;stroke-dasharray:none;stroke-opacity:1" />
    </g>
  </g>
  <g
     inkscape:groupmode="layer"
     id="layer4"
     inkscape:label="Layer 4"
     style="display:inline">
    <path
       style="fill:#ffffff;fill-opacity:1;stroke:none;stroke-width:0.266085;stroke-miterlimit:4;stroke-dasharray:none;stroke-opacity:1"
       id="path850"
       sodipodi:type="arc"
       sodipodi:cx="17.027819"
       sodipodi:cy="16.793617"
       sodipodi:rx="10.460626"
       sodipodi:ry="10.460626"
       sodipodi:start="3.4914483"
       sodipodi:end="4.5597397"
       d="M 7.2008747,13.20811 A 10.460626,10.460626 0 0 1 15.437206,6.4546308"
       sodipodi:open="true" />
  </g>
</svg>
